<svg xmlns="http://www.w3.org/2000/svg" width="26" height="25" fill="none" viewBox="0 0 26 25">
  <path fill="#A5A5A5" fill-rule="evenodd" d="M1.933 9.76c0-.42.359-.76.8-.76H23c.442 0 .8.34.8.76v10.65c0 .98-.836 1.774-1.867 1.774H3.8c-1.03 0-1.867-.794-1.867-1.774V9.76Zm1.6.761v9.887c0 .14.12.254.267.254h18.133a.26.26 0 0 0 .267-.253V10.52H3.533Z" clip-rule="evenodd"/>
  <path fill="#A5A5A5" fill-rule="evenodd" d="M3.8 4.437a.26.26 0 0 0-.267.253V9H22.2V4.69a.26.26 0 0 0-.267-.253H3.8Zm-1.867.253c0-.98.836-1.775 1.867-1.775h18.133c1.031 0 1.867.795 1.867 1.775v5.07c0 .42-.358.761-.8.761H2.733c-.441 0-.8-.34-.8-.76V4.69Z" clip-rule="evenodd"/>
  <path fill="#A5A5A5" fill-rule="evenodd" d="M8.6 1.394c.442 0 .8.34.8.76v4.057c0 .42-.358.76-.8.76-.442 0-.8-.34-.8-.76V2.155c0-.42.358-.76.8-.76Zm8.533 0c.442 0 .8.34.8.76v4.057c0 .42-.358.76-.8.76-.442 0-.8-.34-.8-.76V2.155c0-.42.358-.76.8-.76ZM14.2 17.366c0-.42.358-.76.8-.76h3.2c.442 0 .8.34.8.76s-.358.76-.8.76H15c-.442 0-.8-.34-.8-.76Zm-7.467 0c0-.42.359-.76.8-.76h3.2c.442 0 .8.34.8.76s-.358.76-.8.76h-3.2c-.441 0-.8-.34-.8-.76ZM14.2 13.31c0-.42.358-.76.8-.76h3.2c.442 0 .8.34.8.76s-.358.76-.8.76H15c-.442 0-.8-.34-.8-.76Zm-7.467 0c0-.42.359-.76.8-.76h3.2c.442 0 .8.34.8.76s-.358.76-.8.76h-3.2c-.441 0-.8-.34-.8-.76Z" clip-rule="evenodd"/>
</svg>
