<svg id="Layer_1" data-name="Layer 1" xmlns="http://www.w3.org/2000/svg" viewBox="0 0 20.5 20.5"><defs><style>.cls-1{fill:#ffc107;stroke-linecap:round;stroke-linejoin:round;stroke-width:1.5px;}.cls-1,.cls-2{stroke:#fff;}.cls-2{fill:none;stroke-miterlimit:10;}.cls-3{fill:#99cb57;}.cls-4{fill:#fff;}</style></defs><title>helpYello</title><path class="cls-1" d="M1,11.86V9.14A8.15,8.15,0,0,1,9.14,1h2.72A8.15,8.15,0,0,1,20,9.14h0v2.72A8.15,8.15,0,0,1,11.86,20H9.14A8.15,8.15,0,0,1,1,11.86Z" transform="translate(-0.25 -0.25)"/><path class="cls-2" d="M7.79,7.3C7.79,5.82,9,5,10.84,5.07a2.46,2.46,0,0,1,2.37,2.44,3.52,3.52,0,0,1-1.54,3.11,2.6,2.6,0,0,0-1.17,2.59" transform="translate(-0.25 -0.25)"/><path class="cls-3" d="M10.5,16.61A.67.67,0,0,1,9.8,16a.67.67,0,0,1,.65-.7h.05a.68.68,0,0,1,0,1.36Z" transform="translate(-0.25 -0.25)"/><path class="cls-4" d="M10.5,14.57a1.36,1.36,0,1,1-1.36,1.36A1.36,1.36,0,0,1,10.5,14.57Z" transform="translate(-0.25 -0.25)"/></svg>