<svg xmlns="http://www.w3.org/2000/svg" width="18" height="24" fill="none" viewBox="0 0 18 24">
  <path fill="#E3E3E3" d="M10.2 13.667a1 1 0 1 0-2 0h2Zm-2 4.444a1 1 0 1 0 2 0h-2Zm-4.333-7.889h10.666v-2H3.867v2Zm11.8 1.223v8.888h2v-8.888h-2Zm-1.134 10.11H3.867v2h10.666v-2Zm-11.8-1.222v-8.888h-2v8.888h2Zm1.134 1.223c-.588 0-1.134-.509-1.134-1.223h-2c0 1.741 1.365 3.223 3.134 3.223v-2Zm11.8-1.223c0 .714-.546 1.223-1.134 1.223v2c1.769 0 3.134-1.482 3.134-3.223h-2Zm-1.134-10.11c.588 0 1.134.508 1.134 1.221h2c0-1.74-1.365-3.222-3.134-3.222v2Zm-10.666-2c-1.769 0-3.134 1.48-3.134 3.221h2c0-.713.546-1.222 1.134-1.222v-2ZM13.533 7v3.333h2V7h-2Zm-8.666 3.333V7h-2v3.333h2ZM9.2 2.444c2.355 0 4.333 2.001 4.333 4.556h2c0-3.582-2.797-6.556-6.333-6.556v2Zm0-2C5.664.444 2.867 3.418 2.867 7h2c0-2.555 1.978-4.556 4.333-4.556v-2Zm-1 13.223v4.444h2v-4.444h-2Z"/>
</svg>
